<?xml version="1.0" encoding="utf-8"?>
<!-- Generator: Adobe Illustrator 26.0.1, SVG Export Plug-In . SVG Version: 6.00 Build 0)  -->
<svg version="1.1" id="Layer_1" xmlns="http://www.w3.org/2000/svg" xmlns:xlink="http://www.w3.org/1999/xlink" x="0px" y="0px"
	 viewBox="0 0 199.9 26.8" style="enable-background:new 0 0 199.9 26.8;" xml:space="preserve">
<style type="text/css">
	.st0{fill:#505050;}
</style>
<g>
	<g>
		<path class="st0" d="M195.8,5c1.2,0,2.1,1,2.1,2.2s-1,2.1-2.2,2.1c-1.2,0-2.1-1-2.1-2.2c0,0,0,0,0,0C193.6,5.9,194.6,5,195.8,5
			 M195.8,4.7c-1.3,0-2.4,1.1-2.4,2.4s1.1,2.4,2.4,2.4c1.3,0,2.4-1.1,2.4-2.4S197.1,4.7,195.8,4.7L195.8,4.7z"/>
		<path class="st0" d="M196.1,7.2L196.1,7.2c0.2-0.1,0.4-0.3,0.4-0.5c0-0.3-0.2-0.6-0.5-0.6c0,0,0,0-0.1,0h-0.7 M195,6.2v1.9
			 M195.1,8.1h0.2l0,0V7.3l0,0h0.3l0,0l0.4,0.8l0,0h0.2c0,0,0.1,0,0.1,0c0,0,0,0,0,0L195.1,8.1z M195.4,6.4L195.4,6.4h0.4
			c0.2,0,0.3,0.1,0.3,0.3c0,0.2-0.1,0.3-0.3,0.3c0,0,0,0,0,0h-0.4l0,0V6.4z"/>
	</g>
	<g>
		<g>
			<path class="st0" d="M38,3c0-0.3-0.2-0.5-0.5-0.5c-0.1,0-0.2,0-0.2,0.1L27,8.6c-0.1,0.1-0.2,0.2-0.2,0.4v16.3
				c0,0.3,0.2,0.5,0.5,0.5c0.1,0,0.2,0,0.2-0.1l10.2-6c0.1-0.1,0.2-0.2,0.2-0.4L38,3z"/>
			<path class="st0" d="M25.4,3c0-0.3-0.2-0.5-0.5-0.5c-0.1,0-0.2,0-0.2,0.1l-10.2,6c-0.1,0.1-0.2,0.2-0.2,0.4v16.3
				c0,0.3,0.2,0.5,0.5,0.5c0.1,0,0.2,0,0.2-0.1l10.2-6c0.1-0.1,0.2-0.2,0.2-0.4V3z"/>
			<path class="st0" d="M12.9,3c0-0.3-0.2-0.5-0.5-0.5c-0.1,0-0.2,0-0.2,0.1L2,8.6C1.9,8.7,1.8,8.8,1.8,9v16.3
				c0,0.3,0.2,0.5,0.5,0.5c0.1,0,0.2,0,0.2-0.1l10.2-6c0.1-0.1,0.2-0.2,0.2-0.4L12.9,3z"/>
		</g>
		<g>
			<path class="st0" d="M47.9,5.5c0-0.4,0.3-0.7,0.7-0.7h6.9c1.1,0,2.2,0,3.4,0.2c0.7,0.1,1.4,0.4,2,0.8c0.6,0.4,1.1,1,1.5,1.6
				C62.8,8,63,8.8,62.9,9.6c0,1.8-1,3.4-2.7,4.1c1.1,0.3,2,0.9,2.7,1.7c0.6,0.8,1,1.8,0.9,2.9c0,0.9-0.2,1.7-0.6,2.5
				c-0.4,0.8-0.9,1.5-1.6,2c-0.8,0.5-1.7,0.8-2.6,0.9c-0.6,0.1-2.2,0.1-4.6,0.1h-5.8c-0.4,0-0.7-0.3-0.7-0.7L47.9,5.5z M51.8,8v4.4
				h2.5c1.5,0,2.4,0,2.8-0.1c0.6,0,1.1-0.3,1.5-0.7c0.4-0.4,0.6-0.9,0.6-1.5c0-0.5-0.1-1-0.5-1.4c-0.4-0.4-0.9-0.7-1.5-0.7
				c-0.4,0-1.5,0-3.3,0H51.8z M51.8,15.6v5.1h3.5c0.9,0,1.8,0,2.7-0.2c1.2-0.2,2-1.2,1.9-2.4c0-0.5-0.1-1-0.4-1.5
				c-0.3-0.4-0.7-0.7-1.2-0.9c-1.1-0.2-2.3-0.3-3.4-0.3L51.8,15.6z"/>
			<path class="st0" d="M87.9,23.8c-0.4,0-0.7-0.3-0.7-0.7V5.5c0-0.4,0.3-0.7,0.7-0.7h2.5c0.4,0,0.7,0.3,0.7,0.7v17.6
				c0,0.4-0.3,0.7-0.7,0.7H87.9z"/>
			<path class="st0" d="M104.7,16.8c-0.4,0-0.7-0.3-0.7-0.7c0,0,0,0,0,0v-1.9c0-0.4,0.3-0.7,0.6-0.7c0,0,0,0,0,0h6.9
				c0.4,0,0.7,0.3,0.7,0.6c0,0,0,0,0,0v6.6c0,0.2-0.1,0.4-0.2,0.5c-1,0.8-2.1,1.4-3.2,1.8c-1.5,0.6-3,0.9-4.6,0.9
				c-1.8,0-3.6-0.4-5.2-1.2c-1.4-0.8-2.6-2-3.3-3.5c-0.7-1.6-1.1-3.3-1.1-5c0-1.8,0.4-3.6,1.2-5.2c0.8-1.5,2.1-2.7,3.6-3.5
				c1.4-0.7,3-1,4.5-0.9c1.9-0.1,3.9,0.4,5.5,1.4c1.1,0.8,1.9,2,2.3,3.3c0.1,0.2,0,0.4-0.1,0.6c-0.1,0.2-0.3,0.3-0.4,0.3l-2.5,0.5
				c-0.3,0.1-0.6-0.1-0.7-0.4c-0.3-0.7-0.7-1.3-1.3-1.7C105.9,8,105,7.7,104,7.8c-1.5-0.1-3,0.5-4,1.6c-1.1,1.3-1.6,3-1.5,4.7
				c-0.1,1.8,0.4,3.6,1.5,5c1,1.2,2.5,1.8,4,1.7c0.8,0,1.6-0.2,2.4-0.5c0.7-0.3,1.4-0.7,2.1-1.1v-2.4H104.7z"/>
			<path class="st0" d="M133.2,22.9c0.1,0.2,0.1,0.4-0.1,0.6c-0.1,0.2-0.3,0.3-0.6,0.3h-2.7c-0.3,0-0.5-0.2-0.6-0.4l-1.5-3.9h-7.6
				l-1.4,3.9c-0.1,0.3-0.3,0.4-0.6,0.4h-2.6c-0.4,0-0.7-0.3-0.7-0.7c0-0.1,0-0.2,0-0.2l6.9-17.6c0.1-0.3,0.4-0.4,0.6-0.4h3.1
				c0.3,0,0.5,0.2,0.6,0.4L133.2,22.9z M126.5,16.3l-2.6-7l-2.6,7H126.5z"/>
			<path class="st0" d="M136.8,23.8c-0.4,0-0.7-0.3-0.7-0.7V5.5c0-0.4,0.3-0.7,0.7-0.7h2.7c0.2,0,0.5,0.1,0.6,0.3l7.6,12.3v-12
				c0-0.4,0.3-0.7,0.7-0.7h2.2c0.4,0,0.7,0.3,0.7,0.7v17.6c0,0.4-0.3,0.7-0.7,0.7h-2.8c-0.2,0-0.4-0.1-0.6-0.3l-7.5-12.1v11.7
				c0,0.4-0.3,0.7-0.7,0.7H136.8z"/>
			<path class="st0" d="M167.9,17.4c0.1-0.3,0.5-0.5,0.8-0.4l2.6,0.8c0.2,0.1,0.3,0.2,0.4,0.3c0.1,0.2,0.1,0.4,0,0.5
				c-0.5,1.6-1.5,2.9-2.8,3.9c-3.8,2.4-8.6,1.9-11.9-1.1c-1.8-1.9-2.7-4.5-2.6-7.1c-0.2-2.7,0.8-5.4,2.6-7.4
				c1.8-1.8,4.3-2.7,6.8-2.6c2.2-0.1,4.3,0.6,6,2c0.8,0.8,1.4,1.7,1.8,2.8c0.1,0.2,0.1,0.4,0,0.5c-0.1,0.2-0.2,0.3-0.4,0.3l-2.7,0.6
				c-0.3,0.1-0.7-0.1-0.8-0.4c-0.3-0.7-0.7-1.3-1.3-1.8c-0.8-0.6-1.8-0.9-2.8-0.9c-1.4,0-2.7,0.5-3.6,1.5c-0.9,1-1.4,2.6-1.4,4.9
				c0,2.4,0.4,4.1,1.4,5.1c0.9,1,2.2,1.6,3.6,1.5c1,0,2-0.3,2.8-1C167.1,19.2,167.6,18.4,167.9,17.4z"/>
			<path class="st0" d="M176.5,23.8c-0.4,0-0.7-0.3-0.7-0.7V5.5c0-0.4,0.3-0.7,0.7-0.7h12.7c0.4,0,0.7,0.3,0.7,0.7v1.9
				c0,0.4-0.3,0.7-0.7,0.7h-9.6v4.2h8.9c0.4,0,0.7,0.3,0.7,0.7v1.9c0,0.4-0.3,0.7-0.7,0.7h-8.9v5.2h9.9c0.4,0,0.7,0.3,0.7,0.7v1.9
				c0,0.4-0.3,0.7-0.7,0.7H176.5z"/>
			<path class="st0" d="M80.1,16.9L79,15.2c1.1-0.2,2.1-0.8,2.9-1.6c0.9-1,1.3-2.2,1.3-3.5c0-1.1-0.3-2.1-0.8-3
				c-0.5-0.8-1.3-1.5-2.2-1.8c-1.4-0.4-2.9-0.6-4.4-0.5h-7.4c-0.4,0-0.7,0.3-0.7,0.7v17.7c0,0.4,0.3,0.7,0.7,0.7h2.5
				c0.4,0,0.7-0.3,0.7-0.7v-7.3h3.3l2.5,3.8l0,0l2.6,3.8c0.1,0.2,0.3,0.3,0.6,0.3h3c0.4,0,0.6-0.4,0.6-0.7c0-0.1,0-0.2-0.1-0.3
				L80.1,16.9z M77.8,12.6c-1.1,0.2-2.3,0.3-3.4,0.2h-2.8V8h3C76,8,77,8,77.3,8.1c0.6,0.1,1.1,0.3,1.4,0.7c0.4,0.4,0.5,1,0.5,1.6
				c0,0.5-0.1,1-0.4,1.4C78.6,12.2,78.2,12.5,77.8,12.6z"/>
		</g>
	</g>
</g>
</svg>
