<?xml version="1.0" encoding="utf-8"?>
<!-- Generator: Adobe Illustrator 26.0.1, SVG Export Plug-In . SVG Version: 6.00 Build 0)  -->
<svg version="1.1" id="Layer_1" xmlns="http://www.w3.org/2000/svg" xmlns:xlink="http://www.w3.org/1999/xlink" x="0px" y="0px"
	 viewBox="0 0 132.1 53.1" style="enable-background:new 0 0 132.1 53.1;" xml:space="preserve">
<style type="text/css">
	.st0{fill:#505050;}
</style>
<path class="st0" d="M13,0.1H7H1H0.8V26h5.1v-7.5H13c6.5,0,9.5-4.8,9.5-9.2S19.5,0.1,13,0.1z M13,13.8H5.8V4.9H13
	c2.4-0.1,4.4,1.7,4.5,4.1c0,0.1,0,0.3,0,0.4c0.1,2.4-1.8,4.3-4.1,4.4C13.2,13.8,13.1,13.8,13,13.8z"/>
<path class="st0" d="M34.7,7.4c-2.1-0.1-4.2,0.8-5.5,2.5V0.1h-4.7V26h4.7v-9.4c0-2.8,1.9-4.8,4.3-4.8s4,1.6,4,4.6V26h4.7v-9.6
	C42.2,10.6,39.5,7.4,34.7,7.4z"/>
<path class="st0" d="M63,13.4c-0.5-1.1-1.2-2.2-2.1-3.1c-2.8-2.8-7.1-3.6-10.8-2.1c-1.2,0.5-2.2,1.2-3.1,2.1
	c-0.9,0.9-1.6,1.9-2.1,3.1c-0.5,1.2-0.8,2.5-0.8,3.8c0,1.3,0.2,2.6,0.8,3.8c0.5,1.1,1.2,2.2,2.1,3.1c0.9,0.9,1.9,1.6,3.1,2.1
	c2.5,1,5.2,1,7.7,0c1.2-0.5,2.2-1.2,3.1-2.1c1.8-1.8,2.8-4.3,2.8-6.8C63.8,15.9,63.5,14.6,63,13.4z M54,22.7c-0.7,0-1.5-0.1-2.2-0.4
	c-0.6-0.2-1.2-0.6-1.6-1.1c-0.4-0.5-0.8-1.1-1-1.7c-0.5-1.5-0.5-3,0-4.5c0.2-0.6,0.6-1.2,1-1.7c0.5-0.5,1-0.9,1.6-1.1
	c0.7-0.3,1.4-0.4,2.2-0.4c0.7,0,1.5,0.1,2.2,0.4c0.6,0.3,1.2,0.7,1.6,1.2c0.4,0.5,0.8,1.1,1,1.7c0.5,1.5,0.5,3,0,4.5
	c-0.2,0.6-0.6,1.2-1,1.7c-0.5,0.5-1,0.8-1.6,1.1C55.5,22.5,54.7,22.7,54,22.7z"/>
<path class="st0" d="M76.2,7.4c-2.2,0-4.3,0.9-5.8,2.6l-0.3-2.3h-4.2V26h4.7v-9.4c-0.2-2.5,1.8-4.7,4.3-4.9c0.1,0,0.1,0,0.2,0
	c2.6,0,4.2,1.8,4.2,4.7V26H84v-9.6C84,11,80.9,7.4,76.2,7.4z"/>
<ellipse class="st0" cx="89.6" cy="2.7" rx="2.8" ry="2.7"/>
<rect x="87.3" y="7.6" class="st0" width="4.7" height="18.4"/>
<path class="st0" d="M107.9,20.5c-1,1-2.4,1.5-3.9,1.5c-3.4,0-5-2.6-5-5.1c-0.1-2.8,2-5.1,4.8-5.2c0.1,0,0.2,0,0.3,0
	c1.3,0,2.6,0.5,3.5,1.4l0.1,0.1l3-3.1l-0.1-0.1c-1.7-1.8-4.1-2.8-6.6-2.7c-5.9,0-9.7,3.8-9.7,9.7s3.8,9.7,9.7,9.7
	c2.6,0.1,5.2-1,7-2.9l0.1-0.1L107.9,20.5L107.9,20.5z"/>
<path class="st0" d="M120.9,14.6c-2.2-0.1-3.3-0.8-3.3-1.9s1.2-1.7,3.2-1.7c1.6-0.1,3.2,0.5,4.4,1.6l0.1,0.1l2.6-3.1l-0.1-0.1
	c-2-1.7-4.5-2.6-7.1-2.4c-1.8,0-3.5,0.4-5.1,1.3c-1.6,0.9-2.7,2.6-2.6,4.5c0,4.5,4.8,5.5,7.6,5.7c2.5,0.1,3.5,0.6,3.5,1.8
	s-1.5,2-3,2c-2.3-0.1-4.5-1-6.2-2.5l-0.1-0.1l-2.4,3.4l0.1,0.1c2.8,2.9,5.7,3.3,8.4,3.3c3.9,0,7.9-1.9,7.9-6.1
	C128.8,15.8,124.6,14.9,120.9,14.6z"/>
<path class="st0" d="M52.6,20.4c-0.2,0-0.4-0.2-0.4-0.5v-5.3c0-0.2,0.3-0.4,0.5-0.4c0.2,0,0.3,0.2,0.4,0.4v5.3
	C53,20.2,52.8,20.4,52.6,20.4L52.6,20.4z"/>
<path class="st0" d="M55.7,20.4c-0.2,0-0.5-0.2-0.5-0.4v0v-5.3c0-0.2,0.2-0.5,0.5-0.5s0.5,0.2,0.5,0.5v5.3
	C56.1,20.2,55.9,20.4,55.7,20.4L55.7,20.4z"/>
<path class="st0" d="M51,18.6c-0.2,0-0.4-0.2-0.5-0.4v-2.1c0-0.2,0.2-0.4,0.5-0.4c0.2,0,0.4,0.2,0.4,0.4v2.1
	C51.4,18.4,51.2,18.6,51,18.6z"/>
<path class="st0" d="M57.2,18.6c-0.2,0-0.4-0.2-0.4-0.4v-2.1c0-0.2,0.3-0.4,0.5-0.4c0.2,0,0.3,0.2,0.4,0.4v2.1
	C57.7,18.4,57.5,18.6,57.2,18.6z"/>
<path class="st0" d="M54.1,21.9c-0.2,0-0.5-0.2-0.5-0.4v0v-8.4c0-0.2,0.1-0.5,0.4-0.5c0.2,0,0.5,0.1,0.5,0.4c0,0,0,0.1,0,0.1v8.4
	C54.6,21.7,54.4,21.9,54.1,21.9z"/>
<path class="st0" d="M4.2,37.8h2v-2.2h-2v-1.6c0-0.5,0-1,0.2-1.5c0.1-0.2,0.4-0.3,0.6-0.3c0.5,0,0.7,0.3,0.8,1v0.1l2.2-0.3v-0.1
	C8,31.2,6.5,29.9,4.9,30c0,0,0,0,0,0c-0.8,0-1.6,0.3-2.2,0.8c-0.7,0.8-1,1.9-0.9,3v1.6H0v2.3h1.7v7.5H0v2.2h6.5v-2.2H4.2V37.8z"/>
<path class="st0" d="M13.7,35.2c-1.7,0-3.3,0.6-4.5,1.8c-2.4,2.5-2.4,6.5,0,9.1c1.2,1.2,2.8,1.8,4.5,1.8c1.7,0,3.2-0.6,4.4-1.8
	c2.5-2.5,2.5-6.6,0-9.1C17,35.8,15.4,35.2,13.7,35.2z M11.1,38.8c0.7-0.7,1.6-1.1,2.6-1.1c1,0,1.9,0.4,2.6,1.1c1.4,1.6,1.4,4,0,5.6
	c-1.4,1.4-3.7,1.5-5.2,0c0,0,0,0,0,0c-0.7-0.8-1.1-1.8-1.1-2.8C10,40.5,10.4,39.5,11.1,38.8L11.1,38.8z"/>
<path class="st0" d="M27.6,35.6c-0.6,0.2-1.1,0.5-1.5,0.9c-0.4,0.4-0.7,0.9-0.9,1.4v-2.3h-4.4v2.2h2.4v7.5h-2.4v2.2h7.4v-2.2h-2.5
	v-2.5c-0.1-1.1,0.1-2.2,0.4-3.3c0.2-0.5,0.7-1,1.2-1.2c0.8-0.3,1.7-0.4,2.6-0.3h0.5v-2.6h-0.7C29,35.3,28.3,35.4,27.6,35.6z"/>
<path class="st0" d="M45.8,39.2c2.1-0.3,3.6-2.2,3.5-4.3c0-1-0.3-1.9-0.8-2.7c-0.5-0.7-1.3-1.2-2.1-1.5c-1.1-0.2-2.3-0.4-3.5-0.3h-7
	v2.3h2.3v12.6h-2.3v2.3h7.2v-2.3h-2.2v-5.7h2.2l3.9,7.9h3.8v-2.2h-2.1L45.8,39.2z M46.5,34.9c0,0.5-0.1,1.1-0.4,1.5
	c-0.3,0.4-0.6,0.6-1.1,0.7c-0.7,0.1-1.4,0.2-2.1,0.2h-1.9v-4.6H43c0.7,0,1.3,0,2,0.2c0.4,0.1,0.8,0.4,1,0.7
	C46.3,33.9,46.5,34.4,46.5,34.9z"/>
<path class="st0" d="M61.4,43.8c-0.9,1.2-2.3,1.9-3.8,1.9c-1,0-2-0.3-2.7-1c-0.7-0.7-1.1-1.5-1.2-2.5h9.9v-0.1
	c0.1-1.9-0.6-3.8-2-5.2c-1.2-1.1-2.8-1.7-4.4-1.7c-1.6,0-3.2,0.6-4.4,1.8c-1.2,1.2-1.9,2.8-1.9,4.5c-0.1,1.8,0.6,3.4,1.9,4.6
	c1.3,1.1,3,1.7,4.7,1.7c1.2,0,2.3-0.3,3.4-0.8c1.1-0.5,2-1.3,2.6-2.3l0.1-0.1L61.4,43.8L61.4,43.8z M53.8,40.3
	c0.1-0.8,0.5-1.6,1.2-2.2c0.6-0.6,1.5-0.9,2.3-0.9c0.9,0,1.8,0.3,2.5,1c0.6,0.6,1.1,1.3,1.2,2.1L53.8,40.3z"/>
<path class="st0" d="M74.8,39.9c0-0.7,0-1.4-0.2-2.1c-0.1-0.5-0.3-0.9-0.7-1.3c-0.4-0.5-0.9-0.8-1.5-1c-0.8-0.2-1.5-0.3-2.3-0.3
	C68.1,35.1,66,36.2,65,38v0.1l2.4,0.6v-0.1c0.5-0.9,1.4-1.4,2.4-1.3c0.6,0,1.1,0.1,1.6,0.4c0.3,0.2,0.6,0.5,0.8,0.8
	c0.1,0.4,0.2,0.9,0.2,1.4v1c-0.9-0.6-2-0.9-3.1-0.9c-1.1,0-2.2,0.4-3.1,1.1c-0.8,0.7-1.3,1.7-1.3,2.8c0,1.1,0.4,2.1,1.2,2.7
	c0.8,0.7,1.8,1.1,2.8,1.1c1.4,0,2.7-0.6,3.7-1.6v1.3h4.2v-2.2h-2L74.8,39.9z M69.2,45.7c-0.5,0-1.1-0.1-1.5-0.5
	c-0.4-0.4-0.5-0.8-0.5-1.3c0-0.5,0.2-1,0.6-1.4c0.4-0.4,1-0.6,1.6-0.5c1.1,0,2.2,0.4,3,1.1v1.3C71.6,45.3,70.4,45.7,69.2,45.7z"/>
<path class="st0" d="M89.3,30.4h-4.8v2.2h2.3V37c-1.1-1.1-2.5-1.7-4.1-1.7c-1.5,0-3,0.6-4.1,1.7c-1.2,1.2-1.9,2.9-1.8,4.7
	c-0.1,1.7,0.6,3.4,1.8,4.5c1.1,1,2.6,1.6,4.1,1.6c1.6,0,3.1-0.6,4.1-1.8v1.6h4.6v-2.2h-2.2V30.4z M86.8,41.4c0.1,1.1-0.3,2.2-1.1,3
	c-0.7,0.7-1.6,1.1-2.6,1.1c-1,0-1.9-0.3-2.6-1c-0.8-0.8-1.1-1.9-1.1-2.9c0-1,0.3-2.1,1-2.8c0.6-0.7,1.6-1.2,2.6-1.2
	c1,0,1.9,0.4,2.6,1C86.4,39.3,86.9,40.3,86.8,41.4L86.8,41.4z"/>
<path class="st0" d="M95.1,33.1c0.8,0,1.5-0.7,1.5-1.5c0-0.4-0.2-0.7-0.4-1c-0.3-0.3-0.6-0.4-1-0.4c-0.4,0-0.8,0.1-1.1,0.4
	c-0.6,0.6-0.6,1.5,0,2.1C94.4,33,94.7,33.1,95.1,33.1z"/>
<polygon class="st0" points="96.4,35.5 92.1,35.5 92.1,37.8 93.9,37.8 93.9,45.3 92.1,45.3 92.1,47.5 98.3,47.5 98.3,45.3 
	96.4,45.3 "/>
<path class="st0" d="M111,39.6c0-0.8-0.1-1.6-0.2-2.3c-0.2-0.6-0.5-1-1-1.4c-0.6-0.4-1.3-0.6-1.9-0.6c-1.5,0.1-2.9,0.6-4,1.5v-1.3
	h-4.6v2.2h2.1v7.5h-2.1v2.2h6.6v-2.2h-2v-6.2c0.9-0.8,2.1-1.3,3.4-1.5c0.3,0,0.7,0.1,0.9,0.4c0.3,0.5,0.4,1.1,0.4,1.7v7.8h4.5v-2.2
	h-2L111,39.6z"/>
<path class="st0" d="M123.2,35.5v1.6c-2.2-2.3-5.8-2.3-8.1-0.1c0,0-0.1,0.1-0.1,0.1c-1.2,1.2-1.8,2.9-1.8,4.6c0,1.6,0.5,3.2,1.6,4.4
	c1.8,1.9,4.5,2.4,6.8,1.2c0.6-0.3,1.1-0.7,1.6-1.2v0.8c0,0.5,0,1.1-0.1,1.6c-0.1,0.4-0.3,0.7-0.5,1c-0.3,0.4-0.8,0.7-1.2,0.9
	c-0.6,0.3-1.2,0.4-1.8,0.4c-1.2,0-2.4-0.4-3.3-1.2h-0.1l-1.6,1.8l0.1,0.1c1.3,1,3,1.6,4.7,1.6c1.1,0,2.2-0.2,3.2-0.6
	c0.8-0.3,1.6-0.9,2.1-1.6c0.4-0.5,0.7-1.1,0.9-1.8c0.1-0.9,0.2-1.8,0.2-2.7v-8.7h2.1v-2.2H123.2z M123.2,41.6c0,1.1-0.4,2.1-1.1,2.9
	c-0.7,0.7-1.7,1.1-2.7,1.1c-1,0-1.9-0.4-2.6-1.1c-0.7-0.8-1-1.8-1-2.9c-0.1-1.1,0.3-2.1,1.1-2.9c1.4-1.4,3.8-1.4,5.2,0
	C122.8,39.5,123.2,40.5,123.2,41.6L123.2,41.6z"/>
<path class="st0" d="M129.1,35.5h1.2v0.2h-0.5V37h-0.3v-1.3h-0.5V35.5z"/>
<path class="st0" d="M130.5,35.5h0.4l0.4,1.2l0,0l0.4-1.2h0.4V37h-0.2v-1.2l0,0l-0.4,1.2h-0.2l-0.4-1.2l0,0V37h-0.3L130.5,35.5z"/>
</svg>
